<svg xmlns="http://www.w3.org/2000/svg" viewBox="0 0 300 300" width="1024" height="1024">
  <defs>
    <radialGradient id="blob-grad" cx="40%" cy="36%" r="72%">
      <stop offset="0%" stop-color="#FDE68A"/>
      <stop offset="60%" stop-color="#FBBF24"/>
      <stop offset="100%" stop-color="#F59E0B"/>
    </radialGradient>
  </defs>
  <!-- Body BLOB canonico -->
  <path
    d="M150,24 C220,24 282,80 282,148 C282,232 224,284 150,284 C76,284 18,232 18,148 C18,80 80,24 150,24 Z"
    fill="url(#blob-grad)"
  />
  <!-- Highlight glossy top-left -->
  <ellipse cx="100" cy="90" rx="24" ry="15" fill="#FDE68A" opacity="0.85" transform="rotate(-30 100 90)"/>
  <!-- Eyes (expression: normal) -->
  <ellipse cx="100" cy="115" rx="34" ry="40" fill="#1F2937"/>
  <circle cx="111" cy="102" r="9" fill="#fff"/>
  <circle cx="91" cy="130" r="3.5" fill="rgba(255,255,255,0.6)"/>
  <ellipse cx="200" cy="115" rx="34" ry="40" fill="#1F2937"/>
  <circle cx="211" cy="102" r="9" fill="#fff"/>
  <circle cx="191" cy="130" r="3.5" fill="rgba(255,255,255,0.6)"/>
  <!-- Smile -->
  <path d="M122 160 Q150 174, 178 160" fill="none" stroke="#1F2937" stroke-width="7" stroke-linecap="round"/>
</svg>
